/* XPM */
static char *result[] = {
/* columns rows colors chars-per-pixel */
"50 50 42 1 ",
"  c #45341C",
". c #48371D",
"X c #4B391E",
"o c #4D3A20",
"O c #523E21",
"+ c #554123",
"@ c #5B4625",
"# c #5D4926",
"$ c #5F4928",
"% c #614A27",
"& c #634E2A",
"* c #66502B",
"= c #6A532E",
"- c #715A2F",
"; c #6D5431",
": c #755C31",
"> c #795F35",
", c #776031",
"< c #7D6336",
"1 c #7E6339",
"2 c #806636",
"3 c #826937",
"4 c #82663A",
"5 c #856A39",
"6 c #8B6D3E",
"7 c #8E733C",
"8 c #91753E",
"9 c #95793F",
"0 c #8C6E41",
"q c #8F7141",
"w c #937444",
"e c #987747",
"r c #967942",
"t c #9A7A45",
"y c #9F7D4B",
"u c #A27F4A",
"i c #A5814B",
"p c #A8854E",
"a c #AB8751",
"s c #AD8952",
"d c #B38D55",
"f c None",
/* pixels */
"ffffff999,##%fffffffffffffffffffffffffddt;;;ffffff",
"ffffff877,@#&ffffffffffffffffffffffffsssw**;ffffff",
"ffffff877,@@&ffffffffffffffffffffffffspae=;=ffffff",
"fffiiiiti<X+%897979iiiiiissssssssspiiutr0&*;uuafff",
"fffiiuiii<  *77777riiiiiiaasssssssiiit77>%&>yuufff",
"fffiiiiui,  %777777iiiiiiasasssasppiut784&&;uuufff",
"fff4<<7rr,++%,,,:,,<<<<<1313144<><>>>-::;&==44>fff",
"fff&&&<77,@#%**%*$*$$**$&*%**&&#@@@@#%&&*===&%&fff",
"fff=**<88,@@#***********&****%*#@@@@@%&&&;;*&*&fff",
"ffff==-,,*++@===*===*=======*==*&&%%%%%%$++@==ffff",
"ffffff#@@X..Xffffffffffffffffffffffff@@@O   ffffff",
"ffffff@@@+..Xffffffffffffffffffffffff#@@o   ffffff",
"ffffff---%OO+ffffffffffffffffffffffff4>>;OOOffffff",
"ffffff878,###ffffffffffffffffffffffffuuu0&*&ffffff",
"ffffff877,@##ffffffffffffffffffffffffiuu0&&&ffffff",
"ffffff633-##-ffffffffffffffffffffffffuuu0%%=ffffff",
"fffiii1*=&&&4saassssaa777777777-*&qssy77<#@=uiufff",
"fffiii1&&&&&4sssdsssaa977777878-&&0say77<@@-uiufff",
"fffrww4:>;&&>eeeeereew5355355<<-%%4eeerr5$#=wwwfff",
"fff=**qau0&*%%$$#$####*********&@@###3aaq==*&=*fff",
"fff*&&wsd0$&%@@@@#@@@#*********#@@@@+0ssr==*&&&fff",
"fff=&;0yy0$$#@#@@@@#@$*********#@$#@@4yu0&$$***fff",
"ffffff=&&O  offffffffffffffffffffffff%%&+ o ffffff",
"ffffff%O%o  offffffffffffffffffffffff@@@+o  ffffff",
"ffffff&%$+oooffffffffffffffffffffffff&%&Oo offffff",
"ffffffuye0$&&ffffffffffffffffffffffffyyu0&%%ffffff",
"ffffffsss0==;ffffffffffffffffffffffffsssw===ffffff",
"ffffffaaa0*;;ffffffffffffffffffffffffsss0===ffffff",
"fffiuutrr<##1saaaai777777777777tuuuuuiss0$$;uuufff",
"fffiii977,@@1sasssiw77777777777tiiiuiass0$@;uiufff",
"fffiiir77:@@1assssi977777777777tiiuiuass0#@;uiufff",
"fff<>>6ty1&$=::::::===----:-:-:,>>>>>0ia0%&*:>>fff",
"fff*&&6ii5&*%@@@@@@@@@&&&&&&&&&&&$*%&4ii6*&&&&&fff",
"fff**&6ii5&&%@@@@@@@@@&*&*&*&**&****&4ii6*&=&&*fff",
"ffffff<44;O+@ffffffffffffffffffffffff:>>;OOOffffff",
"ffffff&&&@..offffffffffffffffffffffff@#@O   ffffff",
"ffffff*&&+oooffffffffffffffffffffffff@@@O   ffffff",
"ffffff050;O+@ffffffffffffffffffffffff<<2*  .ffffff",
"ffffffsss0==;ffffffffffffffffffffffffiip4X..ffffff",
"ffffffdss0*;;ffffffffffffffffffffffffiii4..Xffffff",
"ffffffrww1==;ffffffffffffffffffffffffyri2oX@ffffff",
"fffiii<&&=;&>0qesssssp87wpssssar77tiir77>%#-uuufff",
"fffiii<&&&=;<7qrsssssa877pssssat77tiitqq<##=uiifff",
"fff8qq<-:;&&-<<5qwweew2<<wrwree53<6668ee2%%=6w6fff",
"fff=**<77,#@@@@####===#@@&*****&**#@@0aaw=*==*&fff",
"fff***<78,@@@@@@@@#===#@#*&*&*&**&#@@1aaw==;&&&fff",
"fff***<53-@@@@@@#@%===#@@&$*&&&&*&#@@>w01$%%&&&fff",
"ffffff***@oooffffffffffffffffffffffff oo o .ffffff",
"ffffff***@Xooffffffffffffffffffffffff       ffffff",
"ffffff***@oooffffffffffffffffffffffff       ffffff"
};
