/* XPM */
static char *result[] = {
/* columns rows colors chars-per-pixel */
"50 50 145 2 ",
"   c #D8BD9B",
".  c #D8BD9B",
"X  c #D8BD9B",
"o  c #D8BD9B",
"O  c #D8BD9B",
"+  c #D6B798",
"@  c #D8BD9B",
"#  c #D8BD9B",
"$  c #D6B798",
"%  c #D5B195",
"&  c #D8BD9B",
"*  c #D8BD9B",
"=  c #D6B798",
"-  c #D5B195",
";  c #D5B195",
":  c #D8BD9B",
">  c #D8BD9B",
",  c #D6B798",
"<  c #D5B195",
"1  c #D5B195",
"2  c #D5B195",
"3  c #D8BD9B",
"4  c #D8BD9B",
"5  c #D6B798",
"6  c #D5B195",
"7  c #D5B195",
"8  c #D8BD9B",
"9  c #D8BD9B",
"0  c #D6B798",
"q  c #D5B195",
"w  c #D5B195",
"e  c #D8BD9B",
"r  c #D8BD9B",
"t  c #D5B195",
"y  c #D5B195",
"u  c #D8BD9B",
"i  c #D8BD9B",
"p  c #D8BD9B",
"a  c #D5B195",
"s  c #D5B195",
"d  c #D8BD9B",
"f  c #D8BD9B",
"g  c #D6B798",
"h  c #D5B195",
"j  c #D5B195",
"k  c #D8BD9B",
"l  c #D5B195",
"z  c #D8BD9B",
"x  c #D5B195",
"c  c #D6B798",
"v  c #D5B195",
"b  c #D8BD9B",
"n  c #D8BD9B",
"m  c #D5B195",
"M  c #D8BD9B",
"N  c #D5B195",
"B  c #D8BD9B",
"V  c #D8BD9B",
"C  c #D5B195",
"Z  c #D8BD9B",
"A  c #D5B195",
"S  c #D5B195",
"D  c #D5B195",
"F  c #D6B798",
"G  c #D8BD9B",
"H  c #D5B195",
"J  c #D6B798",
"K  c #D5B195",
"L  c #D5B195",
"P  c #D5B195",
"I  c #D5B295",
"U  c #D8BD9B",
"Y  c #D6B798",
"T  c #D5B195",
"R  c #D5B195",
"E  c #D5B296",
"W  c #D7BA9A",
"Q  c #D6B697",
"!  c #D5B195",
"~  c #D5B195",
"^  c #D5B195",
"/  c #D5B396",
"(  c #D7BA9A",
")  c #D8BD9B",
"_  c #D5B195",
"`  c #D5B195",
"'  c #D5B195",
"]  c #D5B296",
"[  c #D7BA9A",
"{  c #D8BD9B",
"}  c #D8BD9B",
"|  c #D5B195",
" . c #D5B296",
".. c #D7BA9A",
"X. c #D8BD9B",
"o. c #D5B195",
"O. c #D5B396",
"+. c #D7BA9A",
"@. c #D8BD9B",
"#. c #D5B195",
"$. c #D5B396",
"%. c #D7BA9A",
"&. c #D5B195",
"*. c #D5B296",
"=. c #D7BA9A",
"-. c #D8BD9B",
";. c #D5B195",
":. c #D5B296",
">. c #D7BA9A",
",. c #D5B195",
"<. c #D7BA9A",
"1. c #D8BD9B",
"2. c #D5B195",
"3. c #D5B296",
"4. c #D7BA9A",
"5. c #D8BD9B",
"6. c #D8BD9B",
"7. c #D5B195",
"8. c #D5B296",
"9. c #D7BA9A",
"0. c #D8BD9B",
"q. c #D5B396",
"w. c #D7BA9A",
"e. c #D5B195",
"r. c #D5B396",
"t. c #D7BA9A",
"y. c #D8BD9B",
"u. c #D5B195",
"i. c #D7BA9A",
"p. c #D7BA9A",
"a. c #D5B396",
"s. c #D7BA9A",
"d. c #D8BD9B",
"f. c #D5B396",
"g. c #D5B396",
"h. c #D7BA9A",
"j. c #D5B296",
"k. c #D7BA9A",
"l. c #D5B195",
"z. c #D5B396",
"x. c #D5B396",
"c. c #D7BA9A",
"v. c #D7BB9A",
"b. c #D8BD9B",
"n. c white",
/* pixels */
"                                                                                                    ",
"                                                . .                                                 ",
"                                          X o O + + O o X                                           ",
"                                        X @ # $ % % $ # @ X                                         ",
"                                        & * = - ; ; - = * &                                         ",
"                                      : > , < 1 2 2 1 < , > :                                       ",
"                                  X 3 4 5 6 7 2 2 2 2 % 6 5 4 3 X                                   ",
"                                  8 9 0 q w 2 2 2 2 2 2 w q 0 9 8                                   ",
"                                e r 0 t y 2 2 2 2 2 2 2 2 y t 0 u e                                 ",
"                            X i p , a s 2 2 2 2 2 2 2 2 2 2 s a , p i X                             ",
"                          X d f g h j 2 2 2 2 2 2 2 2 2 2 2 2 j h g f d X                           ",
"                          k 9 = a l 1 2 2 2 2 2 2 2 2 2 2 2 2 1 l a = 9 k                           ",
"                        : z , x 2 2 2 2 2 2 2 2 2 2 2 2 2 2 2 2 2 2 x , z :                         ",
"                    X k > c 6 v 2 2 2 2 2 2 2 2 2 2 2 2 2 2 2 2 2 2 v 6 c > k X                     ",
"                  X d b 0 - w 2 2 2 2 2 2 2 2 2 2 2 2 2 2 2 2 2 2 2 2 w - 0 b d X                   ",
"                  n f 0 m v 2 2 2 2 2 2 2 2 2 2 2 2 2 2 2 2 2 2 2 2 2 2 v m 0 f n                   ",
"                M z g N 2 2 2 2 2 2 2 2 2 2 2 2 2 2 2 2 2 2 2 2 2 2 2 2 2 2 N g z M                 ",
"            X B V , < C 2 2 2 2 2 2 2 2 2 2 2 2 2 2 2 2 2 2 2 2 2 2 2 2 2 2 C < , V B X             ",
"            3 9 = a j 1 2 2 2 2 2 2 2 2 2 2 2 2 2 2 2 2 2 2 2 2 2 2 2 2 2 2 1 j a = 9 3             ",
"          Z p = A s 2 2 2 2 2 2 2 2 2 2 2 2 2 2 2 2 2 2 2 2 2 2 2 2 2 2 2 2 2 2 s A = p Z           ",
"      X & > 5 S y 2 2 2 2 2 2 2 2 2 2 2 2 2 2 2 2 2 2 2 2 2 2 2 2 2 2 2 2 2 2 2 2 y S 5 > & X       ",
"    X @ * , D w 2 2 2 2 2 2 2 2 2 2 2 2 2 2 2 2 2 2 2 2 2 2 2 2 2 2 2 2 2 2 2 2 2 2 w D , * @ X     ",
"    o # F < % 2 2 2 2 2 2 2 2 2 2 2 2 2 2 2 2 2 2 2 2 2 2 2 2 2 2 2 2 2 2 2 2 2 2 2 2 % < F # o     ",
"  G > , - 2 2 2 2 2 2 2 2 2 2 2 2 2 2 2 2 2 2 2 H H 2 2 2 2 2 2 2 2 2 2 2 2 2 2 2 2 2 2 2 - , > G   ",
"8 p J h K 2 2 2 2 2 2 2 2 2 2 2 2 2 2 2 2 2 L P I I P L 2 2 2 2 2 2 2 2 2 2 2 2 2 2 2 2 2 K h J p 8 ",
"U Y N T 1 2 2 2 2 2 2 2 2 2 2 2 2 2 2 2 2 N R E W W E R N 2 2 2 2 2 2 2 2 2 2 2 2 2 2 2 2 1 T N Y U ",
"Q ! ~ 2 2 2 2 2 2 2 2 2 2 2 2 2 2 2 2 2 1 ^ / ( ) ) ( / ^ 1 2 2 2 2 2 2 2 2 2 2 2 2 2 2 2 2 2 ~ ! Q ",
"_ ` 2 2 2 2 2 2 2 2 2 2 2 2 2 2 2 2 2 2 ' ] [ { } } { [ ] ' 2 2 2 2 2 2 2 2 2 2 2 2 2 2 2 2 2 2 ` _ ",
"2 2 2 2 2 2 2 2 2 2 2 2 2 2 2 2 2 2 N |  ...) X.    X.) .. .| N 2 2 2 2 2 2 2 2 2 2 2 2 2 2 2 2 2 2 ",
"2 2 2 2 2 2 2 2 2 2 2 2 2 2 2 2 2 a o.O.+.@.Z         Z @.+.O.o.a 2 2 2 2 2 2 2 2 2 2 2 2 2 2 2 2 2 ",
"2 2 2 2 2 2 2 2 2 2 2 2 2 2 2 2 2 #.$.%.@.X             X @.%.$.#.2 2 2 2 2 2 2 2 2 2 2 2 2 2 2 2 2 ",
"2 2 2 2 2 2 2 2 2 2 2 2 2 2 2 L &.*.=.-.}                 } -.=.*.&.L 2 2 2 2 2 2 2 2 2 2 2 2 2 2 2 ",
"2 2 2 2 2 2 2 2 2 2 2 2 2 2 N ;.:.>.@.                        @.>.:.;.N 2 2 2 2 2 2 2 2 2 2 2 2 2 2 ",
"2 2 2 2 2 2 2 2 2 2 2 2 2 1 ,./ <.1.:                         : 1.<./ ,.1 2 2 2 2 2 2 2 2 2 2 2 2 2 ",
"2 2 2 2 2 2 2 2 2 2 2 2 2 2.3.4.5.6.                            6.5.4.3.2.2 2 2 2 2 2 2 2 2 2 2 2 2 ",
"2 2 2 2 2 2 2 2 2 2 2 a 7.8.9.0.6.                                6.0.9.8.7.a 2 2 2 2 2 2 2 2 2 2 2 ",
"2 2 2 2 2 2 2 2 2 2 a o.q.w.@.Z                                     Z @.w.q.o.a 2 2 2 2 2 2 2 2 2 2 ",
"2 2 2 2 2 2 2 2 2 2 e.r.t.y.                                            y.t.r.e.2 2 2 2 2 2 2 2 2 2 ",
"2 2 2 2 2 2 2 2 1 u.8.i.0.}                                             } 0.i.8.u.1 2 2 2 2 2 2 2 2 ",
"2 2 2 2 2 2 2 N ,.3.p.@.                                                    @.p.3.,.N 2 2 2 2 2 2 2 ",
"2 2 2 2 2 2 L ;.a.4.0.Z                                                     Z 0.4.a.;.L 2 2 2 2 2 2 ",
"2 2 2 2 2 2 u.:.s.d.6.                                                        6.d.s.:.u.2 2 2 2 2 2 ",
"2 2 2 2 a #.*.>.1.6.                                                            6.1.>.*.#.a 2 2 2 2 ",
"2 2 2 N o.f.=.@.:                                                                 : @.=.f.o.N 2 2 2 ",
"2 2 2 | g.h.-.                                                                        -.h.g.| 2 2 2 ",
"2 1 ' j.k.@.}                                                                         } @.k.j.' 1 2 ",
"N ^ ] ..@.X                                                                             X @...] ^ N ",
"l.z.[ ) Z                                                                                 Z ) [ z.l.",
"x.c.{ X.                                                                                    X.{ c.x.",
"v.b.}                                                                                         } b.v."
};
