/* XPM */
static char *result[] = {
/* columns rows colors chars-per-pixel */
"50 50 252 2 ",
"   c #191E2F",
".  c #1B1E2F",
"X  c #1B1F2F",
"o  c #1D1F2F",
"O  c #1E1F2F",
"+  c #1F1F2F",
"@  c #191930",
"#  c #1D1A30",
"$  c #1E1B30",
"%  c #1F1C30",
"&  c #201E2E",
"*  c #211733",
"=  c #221B32",
"-  c #211F30",
";  c #211E31",
":  c #241F30",
">  c #261F31",
",  c #281F32",
"<  c #2C1F33",
"1  c #2E1F33",
"2  c #2F1F33",
"3  c #2E1935",
"4  c #2E1E34",
"5  c #301E34",
"6  c #321E34",
"7  c #351E35",
"8  c #391E36",
"9  c #3D1E36",
"0  c #3D1E37",
"q  c #1E3926",
"w  c #1F3128",
"e  c #21262D",
"r  c #21242E",
"t  c #23252F",
"y  c #21262E",
"u  c #26272F",
"i  c #20292D",
"p  c #222B2D",
"a  c #25292E",
"s  c #252C2D",
"d  c #292A2F",
"f  c #2A2B2E",
"g  c #252530",
"h  c #252431",
"j  c #2A2B31",
"k  c #322132",
"l  c #312A30",
"z  c #383A35",
"x  c #471E39",
"c  c #4B1E3A",
"v  c #4D1D3A",
"b  c #501E3B",
"n  c #541B3D",
"m  c #501D3C",
"M  c #511D3C",
"N  c #521D3C",
"B  c #531D3C",
"V  c #541D3C",
"C  c #571E3C",
"Z  c #611C3F",
"A  c #462235",
"S  c #432536",
"D  c #482136",
"F  c #4C2537",
"G  c #592237",
"H  c #5A223A",
"J  c #5F2338",
"K  c #592438",
"L  c #5E2438",
"P  c #612338",
"I  c #602539",
"U  c #652438",
"Y  c #66243B",
"T  c #662E3B",
"R  c #6F2C3E",
"E  c #7D253E",
"W  c #23551E",
"Q  c #236519",
"!  c #29651A",
"~  c #28611C",
"^  c #256818",
"/  c #2B6C19",
"(  c #317D15",
")  c #294625",
"_  c #274824",
"`  c #374D27",
"'  c #3B442B",
"]  c #3A4828",
"[  c #336522",
"{  c #436C1E",
"}  c #48741E",
"|  c #455F25",
" . c #485A2C",
".. c #464F36",
"X. c #5E4531",
"o. c #4E5B35",
"O. c #515E37",
"+. c #527123",
"@. c #587625",
"#. c #516035",
"$. c #576737",
"%. c #5A6A39",
"&. c #6D642E",
"*. c #607F21",
"=. c #611C40",
"-. c #631C40",
";. c #621D40",
":. c #651C41",
">. c #6C1C42",
",. c #6F1C42",
"<. c #6E1C43",
"1. c #701C43",
"2. c #711C43",
"3. c #721C43",
"4. c #731C43",
"5. c #731C44",
"6. c #751C44",
"7. c #771C44",
"8. c #771C45",
"9. c #781C45",
"0. c #881F45",
"q. c #8B1D48",
"w. c #901B4A",
"e. c #941B4B",
"r. c #971E4A",
"t. c #991D4B",
"y. c #9E1E4B",
"u. c #991B4C",
"i. c #9A1B4D",
"p. c #9B1B4D",
"a. c #9C1B4D",
"s. c #9E1A4E",
"d. c #9F1B4E",
"f. c #9B1C4C",
"g. c #9F1D4C",
"h. c #A01D4C",
"j. c #A11D4D",
"k. c #AD1F4C",
"l. c #AC1F4D",
"z. c #AC1E4E",
"x. c #AC1F4E",
"c. c #882145",
"v. c #922441",
"b. c #922047",
"n. c #942147",
"m. c #9B2940",
"M. c #9B2A42",
"N. c #9E2941",
"B. c #9E2A41",
"V. c #9B2049",
"C. c #9F2248",
"Z. c #9A2749",
"A. c #9A3A47",
"S. c #A52347",
"D. c #AA2C43",
"F. c #AC224B",
"G. c #AD214C",
"H. c #AE204C",
"J. c #AF224C",
"K. c #BF2C47",
"L. c #B62349",
"P. c #B4244B",
"I. c #B2204D",
"U. c #B3214D",
"Y. c #B0224C",
"T. c #B4224D",
"R. c #BB224C",
"E. c #BA2849",
"W. c #BA284A",
"Q. c #BB284A",
"!. c #BD294A",
"~. c #BE294A",
"^. c #AE3346",
"/. c #A93848",
"(. c #C42F47",
"). c #CC2D46",
"_. c #CC2E46",
"`. c #CC2E47",
"'. c #CD2E47",
"]. c #CE2F47",
"[. c #C0274B",
"{. c #C12A48",
"}. c #C02A49",
"|. c #C32B4A",
" X c #C72C49",
".X c #C62D49",
"XX c #C72E48",
"oX c #CB2C48",
"OX c #C92F48",
"+X c #CA2F48",
"@X c #CB2F48",
"#X c #CD3047",
"$X c #CB3149",
"%X c #C83248",
"&X c #CA324A",
"*X c #CD3349",
"=X c #C9364A",
"-X c #CE344A",
";X c #CE354A",
":X c #CF374B",
">X c #CF384C",
",X c #D03048",
"<X c #D1314A",
"1X c #D33F4F",
"2X c #D64150",
"3X c #D54552",
"4X c #D54752",
"5X c #D94251",
"6X c #DC4753",
"7X c #D64853",
"8X c #D84D55",
"9X c #DA4C54",
"0X c #DE5358",
"qX c #DD5559",
"wX c #DF595B",
"eX c #E3555A",
"rX c #E35C5C",
"tX c #DC6560",
"yX c #E36762",
"uX c #E56A62",
"iX c #E76A63",
"pX c #E46C64",
"aX c #E66D64",
"sX c #E97668",
"dX c #ED7769",
"fX c #EA7B6A",
"gX c #368613",
"hX c #398016",
"jX c #599619",
"kX c #578922",
"lX c #539E21",
"zX c #569F21",
"xX c #5E8631",
"cX c #68862A",
"vX c #72942D",
"bX c #738F36",
"nX c #719F34",
"mX c #76903A",
"MX c #81AC2A",
"NX c #84A438",
"BX c #8AB33B",
"VX c #93B73E",
"CX c #EE806D",
"ZX c #EF856F",
"AX c #EF8770",
"SX c #F18A72",
"DX c #F18C72",
"FX c #F28E74",
"GX c #F49376",
"HX c #F69778",
"JX c #9EC540",
"KX c None",
/* pixels */
"KXKXKXKXKXKXKXKXKXKXKXKXKXKXKXKXKXKXKXKXKXKXKXKXKXKXKXKXKXKXKXKXKXKXKXKXKXKXKXKXKXKXKXKXKXKXKXKXKXKX",
"KXKXKXKXKXKXKXKXKXKXKXKXKXKXKXKXKXKXKXKXKXKXKXKXKXKXKXKXKXKXKXKXKXKXKXKXKXKXKXKXKXKXKXKXKXKXKXKXKXKX",
"KXKXKXKXKXKXKXKXKXKXKXKXKXKXKXKXKXKXKXKXKXKXKXKXKXKXKXKXKXKXKXKXKXKXKXKXKXKXKXKXKXKXKXKXKXKXKXKXKXKX",
"KXKXKXKXKXKXKXKXKXKXKXKXKXKXKXKXKXKXKXKXKXKXKXKXKXKXKXKXKXKXKXKXKXKXKXKXKXKXKXKXKXKXKXKXKXKXKXKXKXKX",
"KXKXKXKXKXKXKXKXKXKXKXKXKXKXKXKXKXKXKXKXKXKXKXKXKXKXKXKXKXKXKXKXKXKXKXKXKXKXKXKXKXKXKXKXKXKXKXKXKXKX",
"KXKXKXKXKXKXKXKXKXKXKXKXKXKXKXKXKXKXKXKXKXKXKXKXKXKXKXKXKXKXKXKXKXKXKXKXKXKXKXKXKXKXKXKXKXKXKXKXKXKX",
"KXKXKXKXKXKXKXKXKXKXKXKXKXKXKXKXKXKXKXKXKXKXKXKXKXKXKXKXKXKXKXKXKXKXKXKXKXKXKXKXKXKXKXKXKXKXKXKXKXKX",
"KXKXKXKXKXKXKXKXKXKXKXKXKXKXKXKXKXKXKXKXKXKXKXKXKXKXKXKXKXKXKXKXKXKXKXKXKXKXKXKXKXKXKXKXKXKXKXKXKXKX",
"KXKXKXKXKXKXKXKXKXKXKXKXKXKXKXKXKXKXKXKXKXKXKXKXKXKXKXKXKXKXKXKXKXKXKXKXKXKXKXKXKXKXKXKXKXKXKXKXKXKX",
"KXKXKXKXKXKXKXKXKXKXKXKXKXKXKXKXKXKXKXKXKXKXKXKXKXKXKXKXKXKXKXKXKXKXKXKXKXKXKXKXKXKXKXKXKXKXKXKXKXKX",
"KXKXKXKXKXKXKXKXKXKXKXKXKXKXKXKXKXKXKXKXKXKXKXKXKXKXKXKXKXKXKXKXKXKXKXKXKXKXKXKXKXKXKXKXKXKXKXKXKXKX",
"KXKXKXKXKXKXKXKXKXKXKXKXKXKXKXKXKXKXKXKXKXKXKXKXKXKXKXKXKXKXKXKXKXKXKXKXKXKXKXKXKXKXKXKXKXKXKXKXKXKX",
"KXKXKXKXKXKXKXKXKXKXKXKXKXKXKXKXKXKXKXKXKXKXKXKXKXKXKXKXKXKXKXKXKXKXKXKXKXKXKXKXKXKXKXKXKXKXKXKXKXKX",
"KXKXKXKXKXKXKXKXKXKXKXKXKXKXKXKXKXKXKXKXKXKXKXKXKXKXKXKXKXKXKXKXKXKXKXKXKXKXKXKXKXKXKXKXKXKXKXKXKXKX",
"KXKXKXKXKXKXKXKXKXKXKXKXKXKXKXKXKXKXKXKX- % $ $ % % KXKXKXKXKXKXKXKXKXKXKXKXKXKXKXKXKXKXKXKXKXKXKXKX",
"KXKXKXKXKXKXKXKXKXKXKXKXKXKXKXKXKXKXKXKXh ..%.$. .] KXKXKXKXKXKXKXKXKXKXKXKXKXKXKXKXKXKXKXKXKXKXKXKX",
"KXKXKXKXKXKXKXKXKXKXKXKXKXKXKXKXKXKXKXKXj mXJXVXMX@.u KXKXKXKXKXKXKXKXKXKXKXKXKXKXKXKXKXKXKXKXKXKXKX",
"KXKXKXKXKXKXKXKXKXKXKXKXKXKXKXKXKXKXKXKXd cXvX#.NXbXg KXKXKXKXKXKXKXKXKXKXKXKXKXKXKXKXKXKXKXKXKXKXKX",
"KXKXKXKXKXKXKXKXKXKXKXKXKXKXKXKXKXKXKXKXt } { a xXnXO.z KXKXKXKXKXKXKXKXKXKXKXKXKXKXKXKXKXKXKXKXKXKX",
"KXKXKXKXKXKXKXKXKXKXKXKXKXKXKXKXKXKXKXKXs / ! p ~ lXBXo.& KXKXKXKXKXKXKXKXKXKXKXKXKXKXKXKXKXKXKXKXKX",
"KXKXKXKXKXKXKXKXKXKXKXKXKXKXKXKXKXKXKX' +.gXQ e w [ zXkX| i KXKXKXKXKXKXKXKXKXKXKXKXKXKXKXKXKXKXKXKX",
"KXKXKXKXKXKXKXKXKXKXKXKXKXKXKXKXKXKX# ` jXhXW r * q ^ *.&.S 3 KXKXKXKXKXKXKXKXKXKXKXKXKXKXKXKXKXKXKX",
"KXKXKXKXKXKXKXKXKXKXKXKXKXKXKXKXKXKX= ) ( _ y KXKXKXf R Z.q.c + KXKXKXKXKXKXKXKXKXKXKXKXKXKXKXKXKXKX",
"KXKXKXKXKXKXKXKXKXKXKXKXKXKXKXKXKX; n T X.l @ KXKXA E S.R.L.v.U : KXKXKXKXKXKXKXKXKXKXKXKXKXKXKXKXKX",
"KXKXKXKXKXKXKXKXKXKXKXKXKXKXKXKXKXD 0.z.y.C 5 KX4 Y (.,X;X1X5X/.F KXKXKXKXKXKXKXKXKXKXKXKXKXKXKXKXKX",
"KXKXKXKXKXKXKXKXKXKXKXKXKXKXKX  K D.K. X}.V.-.1 :.C.OX'.4XsXCXtX^.G . KXKXKXKXKXKXKXKXKXKXKXKXKXKXKX",
"KXKXKXKXKXKXKXKXKXKXKXKXKXKXKXL A.wXrX9X$XI.1.2 5.U.OX).8XSXHXdX>XP . KXKXKXKXKXKXKXKXKXKXKXKXKXKXKX",
"KXKXKXKXKXKXKXKXKXKXKXKXKXKXk m.0XAXFXuX&Xk.<.2 1.J.OX`.7XfXZXiX=XJ . KXKXKXKXKXKXKXKXKXKXKXKXKXKXKX",
"KXKXKXKXKXKXKXKXKXKXKXKXKXKXk N.eXDXGXaX&Xk.<.2 1.Y.+X#X:X3X7X2X%XI . KXKXKXKXKXKXKXKXKXKXKXKXKXKXKX",
"KXKXKXKXKXKXKXKXKXKXKXKXKXKXk B.6XyXpXqX$XH.>.< 3.x.W.XX#X_.).oXE.H X KXKXKXKXKXKXKXKXKXKXKXKXKXKXKX",
"KXKXKXKXKXKXKXKXKXKXKXKXKXKXk M.<X-X-X*X.XG.2.7 ,.i.h.Q.+XOX@X!.r.v o KXKXKXKXKXKXKXKXKXKXKXKXKXKXKX",
"KXKXKXKXKXKXKXKXKXKXKXKXKXKX2 c.[.`.].{.F.j.w.7.V ;.p.l.Y.Y.T.b.b 7 KXKXKXKXKXKXKXKXKXKXKXKXKXKXKXKX",
"KXKXKXKXKXKXKXKXKXKXKXKXKXKX< =.n.~.|.P.d.s.e.9.0 9 4.8.6.6.9.Z > KXKXKXKXKXKXKXKXKXKXKXKXKXKXKXKXKX",
"KXKXKXKXKXKXKXKXKXKXKXKXKXKXKX, C t.g.f.u.a.4.6 KXKX< < < < < < KXKXKXKXKXKXKXKXKXKXKXKXKXKXKXKXKXKX",
"KXKXKXKXKXKXKXKXKXKXKXKXKXKXKXKX8 m M M N B x KXKXKXKXKXKXKXKXKXKXKXKXKXKXKXKXKXKXKXKXKXKXKXKXKXKXKX",
"KXKXKXKXKXKXKXKXKXKXKXKXKXKXKXKXKXO O O O O O KXKXKXKXKXKXKXKXKXKXKXKXKXKXKXKXKXKXKXKXKXKXKXKXKXKXKX",
"KXKXKXKXKXKXKXKXKXKXKXKXKXKXKXKXKXKXKXKXKXKXKXKXKXKXKXKXKXKXKXKXKXKXKXKXKXKXKXKXKXKXKXKXKXKXKXKXKXKX",
"KXKXKXKXKXKXKXKXKXKXKXKXKXKXKXKXKXKXKXKXKXKXKXKXKXKXKXKXKXKXKXKXKXKXKXKXKXKXKXKXKXKXKXKXKXKXKXKXKXKX",
"KXKXKXKXKXKXKXKXKXKXKXKXKXKXKXKXKXKXKXKXKXKXKXKXKXKXKXKXKXKXKXKXKXKXKXKXKXKXKXKXKXKXKXKXKXKXKXKXKXKX",
"KXKXKXKXKXKXKXKXKXKXKXKXKXKXKXKXKXKXKXKXKXKXKXKXKXKXKXKXKXKXKXKXKXKXKXKXKXKXKXKXKXKXKXKXKXKXKXKXKXKX",
"KXKXKXKXKXKXKXKXKXKXKXKXKXKXKXKXKXKXKXKXKXKXKXKXKXKXKXKXKXKXKXKXKXKXKXKXKXKXKXKXKXKXKXKXKXKXKXKXKXKX",
"KXKXKXKXKXKXKXKXKXKXKXKXKXKXKXKXKXKXKXKXKXKXKXKXKXKXKXKXKXKXKXKXKXKXKXKXKXKXKXKXKXKXKXKXKXKXKXKXKXKX",
"KXKXKXKXKXKXKXKXKXKXKXKXKXKXKXKXKXKXKXKXKXKXKXKXKXKXKXKXKXKXKXKXKXKXKXKXKXKXKXKXKXKXKXKXKXKXKXKXKXKX",
"KXKXKXKXKXKXKXKXKXKXKXKXKXKXKXKXKXKXKXKXKXKXKXKXKXKXKXKXKXKXKXKXKXKXKXKXKXKXKXKXKXKXKXKXKXKXKXKXKXKX",
"KXKXKXKXKXKXKXKXKXKXKXKXKXKXKXKXKXKXKXKXKXKXKXKXKXKXKXKXKXKXKXKXKXKXKXKXKXKXKXKXKXKXKXKXKXKXKXKXKXKX",
"KXKXKXKXKXKXKXKXKXKXKXKXKXKXKXKXKXKXKXKXKXKXKXKXKXKXKXKXKXKXKXKXKXKXKXKXKXKXKXKXKXKXKXKXKXKXKXKXKXKX",
"KXKXKXKXKXKXKXKXKXKXKXKXKXKXKXKXKXKXKXKXKXKXKXKXKXKXKXKXKXKXKXKXKXKXKXKXKXKXKXKXKXKXKXKXKXKXKXKXKXKX",
"KXKXKXKXKXKXKXKXKXKXKXKXKXKXKXKXKXKXKXKXKXKXKXKXKXKXKXKXKXKXKXKXKXKXKXKXKXKXKXKXKXKXKXKXKXKXKXKXKXKX",
"KXKXKXKXKXKXKXKXKXKXKXKXKXKXKXKXKXKXKXKXKXKXKXKXKXKXKXKXKXKXKXKXKXKXKXKXKXKXKXKXKXKXKXKXKXKXKXKXKXKX",
"KXKXKXKXKXKXKXKXKXKXKXKXKXKXKXKXKXKXKXKXKXKXKXKXKXKXKXKXKXKXKXKXKXKXKXKXKXKXKXKXKXKXKXKXKXKXKXKXKXKX"
};
