/* XPM */
static char *result[] = {
/* columns rows colors chars-per-pixel */
"50 50 178 2 ",
"   c #171D2F",
".  c #1A1E2F",
"X  c #1C1631",
"o  c #1D1A31",
"O  c #211E31",
"+  c #2C1D33",
"@  c #201733",
"#  c #331E34",
"$  c #3A1E36",
"%  c #1C2C2B",
"&  c #1C3C25",
"*  c #153829",
"=  c #183731",
"-  c #23242F",
";  c #232C2C",
":  c #292D2E",
">  c #233D26",
",  c #24342A",
"<  c #2D332D",
"1  c #223828",
"2  c #323B2C",
"3  c #32372D",
"4  c #252231",
"5  c #2C2132",
"6  c #3B2134",
"7  c #332033",
"8  c #4D1E31",
"9  c #461C3A",
"0  c #4D1D39",
"q  c #541D3C",
"w  c #501F33",
"e  c #611D3F",
"r  c #442535",
"t  c #4E2337",
"y  c #4E2936",
"u  c #542337",
"i  c #582B37",
"p  c #542138",
"a  c #5B2739",
"s  c #6D253C",
"d  c #632E39",
"f  c #75263C",
"g  c #7D2C3D",
"h  c #79273D",
"j  c #7A323C",
"k  c #245C1C",
"l  c #24571E",
"z  c #1B7215",
"x  c #23621A",
"c  c #286D18",
"v  c #37671E",
"b  c #247215",
"n  c #227C1B",
"m  c #297B1A",
"M  c #277616",
"N  c #3D7D19",
"B  c #377F16",
"V  c #1D4024",
"C  c #264923",
"Z  c #39482A",
"A  c #265220",
"S  c #2F5622",
"D  c #3E5128",
"F  c #3A5426",
"G  c #0F6325",
"H  c #1B6C25",
"J  c #146728",
"K  c #186732",
"L  c #367C24",
"P  c #387E24",
"I  c #4B7C1D",
"U  c #425428",
"Y  c #465D27",
"T  c #4B6226",
"R  c #486724",
"E  c #526D25",
"W  c #556E29",
"Q  c #577722",
"!  c #667D36",
"~  c #771C44",
"^  c #7D2741",
"/  c #3E4F53",
"(  c #46545A",
")  c #4D5960",
"_  c #6B6D79",
"`  c #812F3D",
"'  c #81263F",
"]  c #82323E",
"[  c #8A363E",
"{  c #92393F",
"}  c #8E1B4A",
"|  c #8F2445",
" . c #922246",
".. c #9E2348",
"X. c #9C2744",
"o. c #8E3140",
"O. c #AD254C",
"+. c #A62C43",
"@. c #BC2E46",
"#. c #B2234C",
"$. c #BA264B",
"%. c #B5284B",
"&. c #B92C48",
"*. c #AD3E43",
"=. c #C0294A",
"-. c #CB2F49",
";. c #D02E4D",
":. c #CE3148",
">. c #C73847",
",. c #D23249",
"<. c #D43C4A",
"1. c #E43D4B",
"2. c #D44449",
"3. c #DA434B",
"4. c #C64346",
"5. c #E6464A",
"6. c #31900E",
"7. c #2B8112",
"8. c #2F8910",
"9. c #3C8516",
"0. c #328A11",
"q. c #3D8D13",
"w. c #3E9212",
"e. c #3E8321",
"r. c #408E15",
"t. c #498D19",
"y. c #588B1C",
"u. c #459214",
"i. c #489913",
"p. c #4B9615",
"a. c #529616",
"s. c #579A17",
"d. c #589B17",
"f. c #5E951F",
"g. c #5E9A19",
"h. c #69941F",
"j. c #639A1C",
"k. c #6B9E1C",
"l. c #65941E",
"z. c #719F1E",
"x. c #6DA11B",
"c. c #65A019",
"v. c #73A21D",
"b. c #78A81D",
"n. c #5F8321",
"m. c #5B9321",
"M. c #608720",
"N. c #638A20",
"B. c #688E20",
"V. c #609620",
"C. c #6C813A",
"Z. c #6F8D32",
"A. c #7B953B",
"S. c #7BA923",
"D. c #3D8B4B",
"F. c #408C50",
"G. c #49915B",
"H. c #659F7F",
"J. c #81AE27",
"K. c #80AD28",
"L. c #8AB82C",
"P. c #86B428",
"I. c #8EB833",
"U. c #92BC35",
"Y. c #9BC53B",
"T. c #97C236",
"R. c #A0C83F",
"E. c #A5CD42",
"W. c #A8D043",
"Q. c #669F80",
"!. c #68A082",
"~. c #76A289",
"^. c #80A891",
"/. c #98B7A5",
"(. c #E6E9E8",
"). c #EAECEC",
"_. c #E5E9E7",
"`. c None",
/* pixels */
"`.`.`.`.`.`.`.`.`.`.`.`.`.`.`.`.`.`.`.`.`.`.`.`.`.`.`.`.`.`.`.`.`.`.`.`.`.`.`.`.`.`.`.`.`.`.`.`.`.`.",
"`.`.`.`.`.`.`.`.`.`.`.`.`.`.`.`.`.`.`.`.`.`.`.`.`.`.`.`.`.`.`.`.`.`.`.`.`.`.`.`.`.`.`.`.`.`.`.`.`.`.",
"`.`.`.`.`.`.`.`.`.`.`.`.`.`.`.`.`.`.`.`.`.`.`.`.`.`.`.`.`.`.`.`.`.`.`.`.`.`.`.`.`.`.`.`.`.`.`.`.`.`.",
"`.`.`.`.`.`.`.`.`.`.`.`.`.`.`.`.`.`.`.`.`.`.`.`.`.`.`.`.`.`.`.`.`.`.`.`.`.`.`.`.`.`.`.`.`.`.`.`.`.`.",
"`.`.`.`.`.`.`.`.`.`.`.`.`.`.`.`.`.`.`.`.`.`.`.`.`.`.`.`.`.`.`.`.`.`.`.`.`.`.`.`.`.`.`.`.`.`.`.`.`.`.",
"`.`.`.`.`.`.`.`.`.`.`.`.`.`.`.`.`.`.`.`.`.`.`.`.`.`.`.`.`.`.`.`.`.`.`.`.`.`.`.`.`.`.`.`.`.`.`.`.`.`.",
"`.`.`.`.`.`.`.`.`.`.`.`.`.`.`.`.`.`.`.`.`.`.`.`.`.`.`.`.`.`.`.`.`.`.`.`.`.`.`.`.`.`.`.`.`.`.`.`.`.`.",
"`.`.`.`.`.`.`.`.`.`.`.`.`.`.`.`.`.`.`.`.`.`.`.`.`.`.`.`.`.`.`.`.`.`.`.`.`.`.`.`.`.`.`.`.`.`.`.`.`.`.",
"`.`.`.`.`.`.`.`.4 5 + 4 `.`.`.`.`.- - - - - - 4 - - - `.`.`.`.- 4 - - : - `.`.`.`.`.`.`.`.`.`.`.`.`.",
"`.`.`.`.`.`.`.y [ { { { d `.`.`.: T E E E E E E E E U - `.`.- Y E E E E E U O `.`.`.`.`.`.`.`.`.`.`.",
"`.`.`.`.`.`.  i 2.5.5.5.{ $ `.X ; T N.n.M.M.n.M.N.N.U O `.`.- T M.M.M.M.M.U o `.`.`.`.`.`.`.`.`.`.`.",
"`.`.`.`.`.`.  u =.<.:.:.%.~ $ O 4 : 3 < < < < < < < : O 4 O 4 : < < < < < 4 4 `.`.`.`.`.`.`.`.`.`.`.",
"`.`.`.`.`.`.`.r s f ' O. .e q e g j ] ] ] ` h g ` h f h f f f j g f h ] ] [ ] r `.`.`.`.`.`.`.`.`.`.",
"`.`.`.`.`.`.`.`.6 7 9 ~ q # ~ +.&.<.3.3.3.<.:.<.<.:.-.-.-.-.:.<.2.:.<.3.3.2.*.r   `.`.`.`.`.`.`.`.`.",
"`.`.`.`.`.`.  t {  .~ 9 5 O # $ t  .O.O.O.%.-.$.%.-.:.:.-.,.:.$.%.:.$.O.O.^ r 5 O `.`.`.`.`.`.`.`.`.",
"`.`.`.`.`.`.  i :.:. .# # q q a s ..#.#.#.$.-.=.%.-.:.,.,.,.:.$.$.:.=.#.#.| a 7 . `.`.`.`.`.`.`.`.`.",
"`.`.`.`.`.`.. i 2.1.+.6 q } } ..&.@.@.@.@.@.@.@.@.@.@.@.=.@.@.@.@.@.@.@.@.@.+.6   `.`.`.`.`.`.`.`.`.",
"`.`.`.`.`.`.  i 2.1.+.6 + 9 9 0 u u u u 8 8 8 8 8 8 8 u u u u w 8 9 8 8 8 u t 5 . `.`.`.`.`.`.`.`.`.",
"`.`.`.`.`.`.  i 2.>.h # % V V V V V * = ( _ _ _ _ _ ( * & & = ) _ _ _ _ _ / * & 1 `.`.`.`.`.`.`.`.`.",
"`.`.`.`.`.`.  i 4.j 4 4 A 7.7.7.m 7.z K /.)._._._._.^.G z z K /.)._._.(._.~.G M k - `.`.`.`.`.`.`.`.",
"`.`.`.`.`.`.`.y i 6 % A N s.s.d.d.d.r.n G.H.H.H.!.!.F.z p.q.n G.!.H.H.!.H.D.n i.R - `.`.`.`.`.`.`.`.",
"`.`.`.`.`.`.`.`.% X , B s.v.v.v.v.v.j.q.m H H H H H 7.u.x.j.q.n H H H c H m u.x.E - `.`.`.`.`.`.`.`.",
"`.`.`.`.`.`.`.`.`.X 2 y.x.v.z.v.v.v.v.k.j.j.j.l.j.V.l.k.S.V.V.V.V.j.j.V.j.j.k.x.T - `.`.`.`.`.`.`.`.",
"`.`.`.`.`.`.`.`.`.@ 2 B.b.v.v.v.v.v.g.P L P P P P e.L L L L L t.P P L L e.y.b.b.E - `.`.`.`.`.`.`.`.",
"`.`.`.`.`.`.`.`.`.X 2 B.b.x.z.v.v.k.t.H H J H H H H H H H H H H H H J H H N j.v.E 4 `.`.`.`.`.`.`.`.",
"`.`.`.`.`.`.`.`.`.X 2 B.b.v.v.v.k.u.t.f.m.f.f.f.m.m.V.m.m.V.V.m.f.j.f.f.f.t.w.c.E 4 `.`.`.`.`.`.`.`.",
"`.`.`.`.`.`.`.`.`.X 2 B.b.v.v.v.x.a.a.v.b.v.v.b.v.s.a.a.a.a.a.a.d.v.b.v.b.g.a.x.E 4 `.`.`.`.`.`.`.`.",
"`.`.`.`.`.`.`.`.`.X 2 M.k.k.x.v.v.v.v.v.z.v.v.v.j.w.0.0.0.0.0.8.u.k.v.v.k.x.k.B.T - `.`.`.`.`.`.`.`.",
"`.`.`.`.`.`.`.`.`.`.`.2 v r.k.v.k.z.v.z.v.v.x.z.x.j.g.g.f.j.g.g.j.v.v.v.v.s.9.F < `.`.`.`.`.`.`.`.`.",
"`.`.`.`.`.`.`.`.`.`.`.X > c t.j.S.k.v.v.z.v.v.v.v.v.v.v.v.v.v.v.v.v.j.s.s.N l % `.`.`.`.`.`.`.`.`.`.",
"`.`.`.`.`.`.`.`.`.`.`.`.O , M p.v.v.z.k.v.v.v.v.v.v.v.z.v.v.v.v.v.z.u.m m l - `.`.`.`.`.`.`.`.`.`.`.",
"`.`.`.`.`.`.`.`.`.`.`.`.X : I c.v.v.j.p.g.v.z.k.v.z.v.x.z.k.v.v.v.k.R & > 1 `.`.`.`.`.`.`.`.`.`.`.`.",
"`.`.`.`.`.`.`.`.`.`.`.`.X < M.b.v.v.y.c y.b.S.K.S.S.K.K.S.K.K.S.S.V.W 3 4 @ `.`.`.`.`.`.`.`.`.`.`.`.",
"`.`.`.`.`.`.`.`.`.`.`.`.X < n.b.x.v.Q < Q S.Y.E.E.E.R.E.R.R.E.R.Y.S.v.Q < X `.`.`.`.`.`.`.`.`.`.`.`.",
"`.`.`.`.`.`.`.`.`.`.`.`.X , N i.i.i.v 4 ! T.E.E.E.E.E.E.E.E.E.E.E.I.P.M.< X `.`.`.`.`.`.`.`.`.`.`.`.",
"`.`.`.`.`.`.`.`.`.`.`.`.`.; k b b M A Z A.E.E.E.E.E.E.E.E.E.E.E.E.E.L.M.< X `.`.`.`.`.`.`.`.`.`.`.`.",
"`.`.`.`.`.`.`.`.`.`.`.`.`.`.; ; , % Z N.I.E.E.E.E.E.E.E.E.E.E.E.E.E.L.Q 3 X `.`.`.`.`.`.`.`.`.`.`.`.",
"`.`.`.`.`.`.`.`.`.`.`.`.`.`.o ; A F Q v.T.E.E.E.E.E.E.E.E.E.E.E.E.E.L.M.: X `.`.`.`.`.`.`.`.`.`.`.`.",
"`.`.`.`.`.`.`.`.`.`.`.`.`.`.; A q.g.v.v.I.Y.E.W.E.E.E.E.E.E.E.E.E.Y.P.N.Z 4 `.`.`.`.`.`.`.`.`.`.`.`.",
"`.`.`.`.`.`.`.`.`.`.`.`.`.; x 9.j.x.v.v.S.L.R.W.E.E.E.W.E.E.W.W.T.K.S.h.M.U O `.`.`.`.`.`.`.`.`.`.`.",
"`.`.`.`.`.`.`.`.`.`.`.`.@ , b p.b.S.v.v.Q W C.C.C.C.C.C.C.C.C.C.Z.v.v.b.b.T 4 `.`.`.`.`.`.`.`.`.`.`.",
"`.`.`.`.`.`.`.`.`.`.`.`.@ ; c i.j.k.x.l.D - 4 4 4 - 4 - 4 4 4 4 Z l.x.x.x.Y o `.`.`.`.`.`.`.`.`.`.`.",
"`.`.`.`.`.`.`.`.`.`.`.`.X ; b 6.w.w.w.q.C @ `.`.`.`.`.`.`.`.`.X > 9.w.w.w.S O `.`.`.`.`.`.`.`.`.`.`.",
"`.`.`.`.`.`.`.`.`.`.`.`.`.; l x x x x x > `.`.`.`.`.`.`.`.`.`.`.1 k x x x V 4 `.`.`.`.`.`.`.`.`.`.`.",
"`.`.`.`.`.`.`.`.`.`.`.`.`.`.; 4 ; ; 4 4 `.`.`.`.`.`.`.`.`.`.`.`.`.- ; % - - `.`.`.`.`.`.`.`.`.`.`.`.",
"`.`.`.`.`.`.`.`.`.`.`.`.`.`.`.`.`.`.`.`.`.`.`.`.`.`.`.`.`.`.`.`.`.`.`.`.`.`.`.`.`.`.`.`.`.`.`.`.`.`.",
"`.`.`.`.`.`.`.`.`.`.`.`.`.`.`.`.`.`.`.`.`.`.`.`.`.`.`.`.`.`.`.`.`.`.`.`.`.`.`.`.`.`.`.`.`.`.`.`.`.`.",
"`.`.`.`.`.`.`.`.`.`.`.`.`.`.`.`.`.`.`.`.`.`.`.`.`.`.`.`.`.`.`.`.`.`.`.`.`.`.`.`.`.`.`.`.`.`.`.`.`.`.",
"`.`.`.`.`.`.`.`.`.`.`.`.`.`.`.`.`.`.`.`.`.`.`.`.`.`.`.`.`.`.`.`.`.`.`.`.`.`.`.`.`.`.`.`.`.`.`.`.`.`.",
"`.`.`.`.`.`.`.`.`.`.`.`.`.`.`.`.`.`.`.`.`.`.`.`.`.`.`.`.`.`.`.`.`.`.`.`.`.`.`.`.`.`.`.`.`.`.`.`.`.`."
};
