/* XPM */
static char *result[] = {
/* columns rows colors chars-per-pixel */
"50 50 123 2 ",
"   c #221729",
".  c #211C2D",
"X  c #211F30",
"o  c #1F2335",
"O  c #1E2639",
"+  c #1E2C3D",
"@  c #1F313F",
"#  c #232634",
"$  c #232835",
"%  c #212B39",
"&  c #243138",
"*  c #29333A",
"=  c #1C2E42",
"-  c #1D3444",
";  c #1F3A45",
":  c #1A3549",
">  c #1D3D4B",
",  c #173E53",
"<  c #1A3F50",
"1  c #203743",
"2  c #203A44",
"3  c #203F48",
"4  c #1F424B",
"5  c #164257",
"6  c #1A4151",
"7  c #1D4C54",
"8  c #164459",
"9  c #16495D",
"0  c #1A4F5A",
"q  c #1F5456",
"w  c #1E565A",
"e  c #1E5C5E",
"r  c #204047",
"t  c #20434A",
"y  c #20494E",
"u  c #29564A",
"i  c #2A5B4C",
"p  c #375B4E",
"a  c #204E51",
"s  c #205354",
"d  c #215D5A",
"f  c #2B614F",
"g  c #2B6550",
"h  c #2C6C54",
"j  c #20625E",
"k  c #396352",
"l  c #3C6A55",
"z  c #287356",
"x  c #2A7C5A",
"c  c #3E7259",
"v  c #134E63",
"b  c #125066",
"n  c #1C5D62",
"m  c #11556B",
"M  c #155C6A",
"N  c #105B71",
"B  c #1D6263",
"V  c #1E6866",
"C  c #17626C",
"Z  c #1A666C",
"A  c #1B696B",
"S  c #1E726E",
"D  c #176A71",
"F  c #146F79",
"G  c #1D7671",
"H  c #1D7C75",
"J  c #17777B",
"K  c #177B7D",
"L  c #187C7D",
"P  c #206460",
"I  c #206962",
"U  c #40755B",
"Y  c #427D5E",
"T  c #2D855F",
"R  c #1F8275",
"E  c #1C827C",
"W  c #318C62",
"Q  c #339265",
"!  c #339F6C",
"~  c #208575",
"^  c #208976",
"/  c #218C7A",
"(  c #21937C",
")  c #2A907C",
"_  c #249D7D",
"`  c #34A36E",
"'  c #2AA777",
"]  c #2EAD75",
"[  c #26A47D",
"{  c #35AC72",
"}  c #38AC72",
"|  c #33AF79",
" . c #2FB073",
".. c #32B374",
"X. c #38B777",
"o. c #38B877",
"O. c #35B279",
"+. c #38B778",
"@. c #36BA78",
"#. c #39BC79",
"$. c #54AD77",
"%. c #40BE7B",
"&. c #4EBF7E",
"*. c #56B379",
"=. c #59BC7E",
"-. c #44C17D",
";. c #48C37F",
":. c #177F80",
">. c #178081",
",. c #1A8681",
"<. c #1C8D83",
"1. c #1C9185",
"2. c #1F9884",
"3. c #209580",
"4. c #219981",
"5. c #2A9E83",
"6. c #5CC381",
"7. c #56CE85",
"8. c #5ECA84",
"9. c #53D187",
"0. c #5CD489",
"q. c #62D68B",
"w. c #64DB8D",
/* pixels */
"$ 6.q.q.q.q.q.w.c l w.q.q.q.q.q.8.* =.w.q.q.q.q.w.Y k w.q.q.q.q.q.8.* =.w.0.w.q.q.w.Y p w.q.q.q.q.w.",
"$ 6.#...X.7.7.@.g u @.@...O.5...| & ` 0.-.....@.@.g u @...+.| 4.+.{ & ` 0.-.....X.@.h u @...O.4.o.q.",
"# / | ......] [ q 7 [ .... .]  ./ % R O... . ...[ q 7 [  ...{ ] ] / % ~ O... . ...[ d y _ ..] ] | 4.",
"X @ ~ 3.( 2.( e > , q 4.2.( 2.R ; 9 ; R ( 2.( 2.j 4 5 s 2.2.( 2./ 2 9 - R 2.( 2.2.B > 6 s 2.( 2.^ 1 ",
"# x t - ; ; ; < b b 5 1 ; ; 2 2 9 m 9 > ; ; ; ; 6 b m 6 1 ; ; - ; 9 m v > 2 2 - ; 4 b b 5 ; ; ; 3 T ",
"# ;.Q w O > 5 C L L D 5 : # 5 9 L L L 9 8 o : 5 C E L D 5 > o 5 8 K K L 9 5 O : 5 M E L D , o 0 W 9.",
"# p u 2 o 8 F ,.<.<.,.L Z - :.K <.<.<.L E ; n L E <.<.,.L A @ L :.<.<.<.E :.; n :.E 1.<.L 9 o ; u k ",
". U z d % 8 L <.<.<.1.R > # w <.<.1.1.1.B O ; H 1.1.1.1.E 4 $ w <.1.<.1.1.B % ; G 1.<.<.L 9 o e h Y ",
"$ 8.#.' I 6 M ,.1.1.H 7 : < : d w w w w o . X ; e w w w 4 . X o q w w w w O X . ; H 1.,.C 4 P [ o.w.",
"# 6.+...4.3 = 0 d B 7 , N N m : . . . . X X X X . . . . X X X X . . . . . X X X . ; B q - 1 2...X.q.",
"# 6.o...4.4 O > %   + v N N m 5 o X X X X X X X X X X X X X X X X X X X X X X X . . % > O : (  ...q.",
"# 6.@.{ 4.3 , :.A % . + 9 9 5 . X X X X X X X X X X X X X X X X X X X X X X X X . % V >.8 ; 2. .o.q.",
"$ 6.-...4.r < J 2.n . X X . X X X X X X X X X X X X X X X X X X X X X X X X X X . w 2.K 8 2 4...-.q.",
"$ 6.0.+.~ t 9 L 1.n . X X X X X X X X X X X X X X X X X X X X X X X X X X X X X . w 1.L 9 ; R O.7.w.",
"# $.` ~ > 9 K <.1.P . X X X X X X X X X X X X X X X X X X X X X X X X X X X X X . q 1.<.L v ; R ` =.",
"X * & % 8 m J <.1.e . X X X X X X X X X X X X X X X X X X X X X X X X X X X X X . e <.<.L m 9 % & * ",
"# =.{ ( r 5 L ,.<.e . X X X X X X X X X X X X X X X X X X X X X X X X X X X X X . w 1.<.J 9 ; / { 8.",
"# 6.+.] ( > 5 K 1.e . X X X X X X X X X X X X X X X X X X X X X X X X X X X X X . s <.L 9 ; /  ...q.",
"$ 6.5.] 4.3 , K e o X X X X X X X X X X X X X X X X X X X X X X X X X X X X X X X # e L 5 ; 2.] 5.q.",
"# 6.O. .4.4 o + $ . X X X X X X X X X X X X X X X X X X X X X X X X X X X X X X X X $ + o ; (  .O.q.",
"$ 6.o...( 4 : Z 7 . X X X X X X X X X X X X X X X X X X X X X X X X X X X X X X X . 4 A , ; (  ...q.",
"# 6.X...4.3 , K E 7 . X X X X X X X X X X X X X X X X X X X X X X X X X X X X X . 4 E L 5 1 2...+.q.",
"$ 8.#.[ d 6 Z ,.2.e . X X X X X X X X X X X X X X X X X X X X X X X X X X X X X . e 1.,.D 5 q _ @.w.",
"X p u y 5 b L <.<.e . X X X X X X X X X X X X X X X X X X X X X X X X X X X X X . q 1.<.H b 5 y u k ",
"# U z d > v K <.1.B . X X X X X X X X X X X X X X X X X X X X X X X X X X X X X X q 1.<.E b > w h Y ",
"$ 6.#.' j 6 M E 2.e . X X X X X X X X X X X X X X X X X X X X X X X X X X X X X . e 1.E C 6 e [ @.w.",
"$ =.%.{ 4.3 , L H 4 . X X X X X X X X X X X X X X X X X X X X X X X X X X X X X X > H :.5 ; 4. ...q.",
"# ;.%.{ 4.3 : n r . X X X X X X X X X X X X X X X X X X X X X X X X X X X X X X . . ; n : ; 3. ...q.",
"$ 6.o...4.4 o - % . X X X X X X X X X X X X X X X X X X X X X X X X X X X X X X X . % - O 2 3. ...q.",
"$ 6.-...4.3 , :.V % X X X X X X X X X X X X X X X X X X X X X X X X X X X X X X . % B >.5 2 3.O.%.w.",
"$ 6.0.+.^ 4 9 J 1.e . X X X X X X X X X X X X X X X X X X X X X X X X X X X X X . w 1.L 9 2 ~ O.0.w.",
"$ $.` ~ > 8 J <.1.e . X X X X X X X X X X X X X X X X X X X X X X X X X X X X X . w 1.<.K v 1 ~ ` =.",
"# * & % 9 m J <.<.e . X X X X X X X X X X X X X X X X X X X X X X X X X X X X X . q 1.<.L m 9 O & * ",
"# *.} ( 4 5 L <.1.e   X X X X X X X X X X X X X X X X X X X X X X X X X X X X X . w <.<.K 9 r E { 8.",
"# 6.o...( > 5 K 1.B . # X X X X X X X X X X X X X X X X X X X X X X X X X X . . . w 1.L 9 2 ( ] X.q.",
"$ 6.....4.; , J 1.e . . X X X X X X X X X X X X X X X X X X X X X X X X X X # # . w 1.K 5 2 1.( X.q.",
"# 6.o...( 4 , K 1.e . X X X X X X X X X X X X X X X X X X X X X X X X X X X . . . w 1.L 5 1 2.] ..q.",
"$ 6.o.{ 4.; , K V O X X X X X X X X X X X X X X X X X X X X X X X X X X 5 9 v = . O B L 8 1 (  .X.q.",
"$ 8.o._ 2.4 o : @ . X X X X X X X X X X X X X X X X X X X X X X X X X 5 m N N b - . $ ; o ; 2. .X.q.",
"# =.o.] 2.> - w V 4   X X X . . . .   X X X X . . . . . X X X . . . . = b N N 5 7 B B P 7 ; 2.....q.",
"$ 8.#.[ B 6 C ,.1.H 4 . . $ n n e B e o X . 4 B B e e 7 . X o e e e e e > : : 0 H 1.1.1.E q j [ @.w.",
"# l g q $ 8 L <.<.1.E 4 % B 1.1.1.1.1.B % 4 E 1.1.1.1.H y O B 1.1.1.1.<.B $ 4 H 1.<.,.<.1.S # s i U ",
"# k f 4 o 8 L <.<.E K n - L L <.<.E L L @ B L ,.<.<.E K B @ L L <.<.<.L K @ n K E <.<.,.J B o : i U ",
"# &.T 0 o : Z K L C , : o 6 5 J L L 5 , o : , C L L C , : o , 0 L L L 8 , o : 6 C K L Z , : o 0 T 9.",
"X z 4 4 4 4 < b b 6 4 4 4 4 4 8 m 5 4 4 4 4 ; 4 v v 6 > ; 4 4 4 5 m 8 4 t 4 4 t , b b 4 > 4 4 ; t x ",
"X ; R _ 4.4.d 6 4 e _ ( 2.( ^ > 9 ; / 4.( _ 2.j < 6 j 4._ _ ( E > 8 4 R 4.( ( 4.j 6 6 d 4.2.4.4./ 1 ",
"o )  .]  ...[ a q [ .. .....+.^ + / ] ]  . . .[ a a [ ..{ ..} &./ % E  .] ]  ...[ q a [ X.o. ...{ 5.",
"$ 6.%.5.O.o.#.f g @.X.X.@.%.0.} % } @.5.+.@.#.#.f f #.@.o.o.%.w.{ & { #.5...o.@.#.f i #.;.7.o.@.&.q.",
"$ *.6.6.6.6.8.k l 8.;.6.=.8.8.*.* *.8.=.8.=.8.8.U p =.=.=.=.=.=.*.* *.;.6.6.6.=.8.U p 8.=.8.=.8.=.8.",
"# # # # # # # # # # # # $ # $ # . # # # # # # # # # * # * * # # $ X # $ # $ # * # # . # # # $ $ * # "
};
